<svg width="33" height="39" viewBox="0 0 33 39" fill="none" xmlns="http://www.w3.org/2000/svg">
<path fill-rule="evenodd" clip-rule="evenodd" d="M7.3408 36.6575L4.67548 38.2805C2.62065 39.5164 0 38.0423 0 35.645V3.36332C0 0.951131 2.62065 -0.522982 4.67548 0.727783L13.5797 6.13288C13.1777 6.05843 12.7608 6.01376 12.329 6.01376C8.10019 6.01376 4.66059 9.34913 4.45213 13.5183H7.81728C8.30866 13.5183 8.80003 13.9204 8.82981 14.4266C8.85959 14.9776 8.41289 15.4392 7.86195 15.4392H4.45213V17.3153H7.86195C8.41289 17.3153 8.85959 17.762 8.82981 18.3278C8.80003 18.849 8.33844 19.2361 7.81728 19.2361H4.45213V21.0974H7.81728C8.30866 21.0974 8.80003 21.5143 8.82981 22.0206C8.85959 22.5715 8.41289 23.0331 7.86195 23.0331H4.45213C4.66059 27.2023 8.10019 30.5228 12.329 30.5228C12.463 30.5228 12.597 30.5079 12.7459 30.5079L11.1527 32.2203V34.3496L11.0186 34.424H9.67854C8.42778 34.424 7.40036 35.4216 7.3408 36.6575ZM31.284 22.1397L13.5053 32.9201V30.4335C17.1682 29.8825 20.0122 26.8003 20.1909 23.0331H16.7811C16.2302 23.0331 15.7984 22.5715 15.8133 22.0206C15.843 21.5143 16.3344 21.0974 16.8407 21.0974H20.2058V19.2361H16.7811C16.2302 19.2361 15.7984 18.7745 15.8133 18.2236C15.843 17.7025 16.3195 17.3153 16.8407 17.3153H20.2058V15.4392H16.8407C16.3344 15.4392 15.843 15.0371 15.8133 14.5309C15.7984 13.9799 16.2302 13.5183 16.7811 13.5183H20.1909C20.1165 11.8953 19.5507 10.4063 18.6424 9.18534L31.284 16.8686C33.2644 18.0598 33.2644 20.9336 31.284 22.1397Z" fill="url(#paint0_linear_6_1692)"/>
<path style="mix-blend-mode:multiply" fill-rule="evenodd" clip-rule="evenodd" d="M12.7459 30.5079L11.1527 32.2203V34.3496L11.0186 34.424H9.67854C8.42778 34.424 7.40036 35.4216 7.3408 36.6575L4.67548 38.2805C2.62065 39.5164 0 38.0423 0 35.645V3.36332C0 0.951131 2.62065 -0.522982 4.67548 0.727783L13.5797 6.13288C13.1777 6.05843 12.7608 6.01376 12.329 6.01376C8.10019 6.01376 4.66059 9.34913 4.45213 13.5183H7.81728C8.30866 13.5183 8.80003 13.9204 8.82981 14.4266C8.85959 14.9776 8.41289 15.4392 7.86195 15.4392H4.45213V17.3153H7.86195C8.41289 17.3153 8.85959 17.762 8.82981 18.3278C8.80003 18.849 8.33844 19.2361 7.81728 19.2361H4.45213V21.0974H7.81728C8.30866 21.0974 8.80003 21.5143 8.82981 22.0206C8.85959 22.5715 8.41289 23.0331 7.86195 23.0331H4.45213C4.66059 27.2023 8.10019 30.5228 12.329 30.5228C12.463 30.5228 12.597 30.5079 12.7459 30.5079ZM23.02 27.1428L13.5053 32.9201V30.4335C17.1682 29.8825 20.0122 26.8003 20.1909 23.0331H16.7811C16.2302 23.0331 15.7984 22.5715 15.8133 22.0206C15.843 21.5143 16.3344 21.0974 16.8407 21.0974H20.2058V19.2361H16.7811C16.2302 19.2361 15.7984 18.7745 15.8133 18.2236C15.843 17.7025 16.3195 17.3153 16.8407 17.3153H20.2058V15.7668C20.9057 17.4344 21.5013 19.1617 21.9777 20.9485C22.5436 23.0927 22.886 25.1624 23.02 27.1428ZM16.7811 13.5183H19.1635C19.4812 14.1437 19.779 14.784 20.0569 15.4392H16.8407C16.3344 15.4392 15.843 15.0371 15.8133 14.5309C15.7984 13.9799 16.2302 13.5183 16.7811 13.5183Z" fill="url(#paint1_linear_6_1692)"/>
<path style="mix-blend-mode:screen" fill-rule="evenodd" clip-rule="evenodd" d="M31.284 22.1396L13.5053 32.92V30.4334C17.1682 29.8824 20.0122 26.8002 20.1909 23.033H16.7811C16.2302 23.033 15.7984 22.5714 15.8133 22.0205C15.843 21.5142 16.3344 21.0973 16.8407 21.0973H20.2058V19.236H16.7811C16.2302 19.236 15.7984 18.7744 15.8133 18.2235C15.843 17.7024 16.3195 17.3152 16.8407 17.3152H20.2058V15.4391H16.8407C16.3344 15.4391 15.843 15.037 15.8133 14.5308C15.7984 13.9798 16.2302 13.5182 16.7811 13.5182H20.1909C20.1314 12.3866 19.8336 11.3145 19.3571 10.3616C19.7045 10.3218 20.052 10.2871 20.3994 10.2573L31.284 16.8685C33.2644 18.0597 33.2644 20.9335 31.284 22.1396ZM0 35.6449V23.4797C1.19121 21.2313 2.79933 19.1318 4.73504 17.3152H7.86195C8.41289 17.3152 8.85959 17.7619 8.82981 18.3277C8.80003 18.8489 8.33844 19.236 7.81729 19.236H4.45213V21.0973H7.81729C8.30866 21.0973 8.80003 21.5142 8.82981 22.0205C8.85959 22.5714 8.41289 23.033 7.86195 23.033H4.45213C4.66059 27.2022 8.10019 30.5227 12.329 30.5227C12.463 30.5227 12.597 30.5078 12.7459 30.5078L11.1527 32.2202V34.3495L11.0186 34.4239H9.67854C8.42778 34.4239 7.40036 35.4215 7.3408 36.6574L4.67548 38.2804C2.62065 39.5163 0 38.0422 0 35.6449ZM6.92388 15.4391C7.51948 14.9924 8.13494 14.5705 8.77025 14.1734C8.80003 14.2479 8.82981 14.3372 8.82981 14.4265C8.85959 14.9775 8.41289 15.4391 7.86195 15.4391H6.92388Z" fill="url(#paint2_linear_6_1692)"/>
<defs>
<linearGradient id="paint0_linear_6_1692" x1="23.5406" y1="-15.1315" x2="65.0595" y2="26.3874" gradientUnits="userSpaceOnUse">
<stop stop-color="#3B6EC2"/>
<stop offset="1" stop-color="#18B2FF"/>
</linearGradient>
<linearGradient id="paint1_linear_6_1692" x1="-23.1895" y1="2.72856" x2="0.555087" y2="-19.7833" gradientUnits="userSpaceOnUse">
<stop stop-color="white"/>
<stop offset="0.987" stop-color="#D937BE"/>
<stop offset="1" stop-color="#D837BF"/>
</linearGradient>
<linearGradient id="paint2_linear_6_1692" x1="8.7631" y1="-14.2741" x2="35.9592" y2="19.1162" gradientUnits="userSpaceOnUse">
<stop stop-color="#13A8F2"/>
<stop offset="1"/>
</linearGradient>
</defs>
</svg>
